# xmcd
#
# Track frame offsets:
#	150
#	14485
#	25712
#	43610
#	54692
#	67017
#	80742
#	90825
#	101540
#	113485
#	123879
#	133540
#	144895
#	155080
#
# Disc length: 2246 seconds
#
# Revision: 0
# Processed by: cddbd v1.4PL0 Copyright (c) Steve Scherf et al.
# Submitted via: dBpowerAMP V4.0
#
DISCID=af08c40e
DTITLE=The Good Brothers - One true thing
DYEAR=1900
DGENRE=Bluegrass
TTITLE0=Nothing has changed
TTITLE1=What the hell i've got
TTITLE2=Before the cold wind blows
TTITLE3=Honey and heartache
TTITLE4=Old man at the mill
TTITLE5=The garden wall
TTITLE6=I'm lost and i'll never find a way
TTITLE7=Final goodbye
TTITLE8=Dooley
TTITLE9=Think of what you've done
TTITLE10=A raag and a fiddle
TTITLE11=Tarnished band of gold
TTITLE12=Big pig jig
TTITLE13=One true thing
EXTD=
EXTT0=
EXTT1=
EXTT2=
EXTT3=
EXTT4=
EXTT5=
EXTT6=
EXTT7=
EXTT8=
EXTT9=
EXTT10=
EXTT11=
EXTT12=
EXTT13=
PLAYORDER=
